<?xml version="1.0" encoding="iso-8859-1"?>
<!-- Generator: Adobe Illustrator 19.0.0, SVG Export Plug-In . SVG Version: 6.00 Build 0)  -->
<svg version="1.1" id="Layer_1" xmlns="http://www.w3.org/2000/svg" xmlns:xlink="http://www.w3.org/1999/xlink" x="0px" y="0px"
	 viewBox="0 0 412.872 412.872" style="enable-background:new 0 0 412.872 412.872;" xml:space="preserve">
<g>
	<g>
		<path style="fill:#4D4D4D;" d="M149.835,197c0,0-6.667,19.333-18.667,28c0,0,23.333-2.667,30-18.667s-8-17.333-8-17.333"/>
		<path style="fill:#4D4D4D;" d="M262.906,197c0,0,6.667,19.333,18.667,28c0,0-23.333-2.667-30-18.667s8-17.333,8-17.333"/>
	</g>
	<path style="fill:#4D4D4D;" d="M258.001,243.778c-2.621-0.497-5.293-0.857-8-1.095v-22.991h-87.13v22.991
		c-2.707,0.238-5.379,0.599-8,1.095c-37.55,7.1-65.95,40.08-65.95,79.7v89.39h235.03v-89.39
		C323.951,283.859,295.551,250.879,258.001,243.778z"/>
	<rect x="203.771" y="219.697" style="fill:#333333;" width="5.33" height="193.17"/>
	<rect x="88.921" y="361.692" style="fill:#FFD3AE;" width="40.5" height="51.18"/>
	<rect x="283.451" y="361.692" style="fill:#FFD3AE;" width="40.5" height="51.18"/>
	<g>
		<g>
			<circle style="fill:#E5B591;" cx="139.057" cy="140.872" r="27.89"/>
			<circle style="fill:#E5B591;" cx="273.692" cy="140.872" r="27.89"/>
		</g>
	</g>
	<path style="fill:#FFD3AE;" d="M288.771,89.437c0,1.96-0.07,3.94-0.21,5.93l-3.46,48.8l-1.69,23.94
		c-2.87,40.43-36.5,71.77-77.04,71.77c-40.53,0-74.16-31.34-77.03-71.77l-1.7-23.94l-3.46-48.8
		C120.801,47.687,288.771,44.377,288.771,89.437z"/>
	<g>
		<path style="fill:#E5B591;" d="M155.299,128.205h35.044c6.522,0,11.81,5.287,11.81,11.81v25.558c0,2.643,2.142,4.785,4.785,4.785
			h11.183l-9.485,3.366c-3.672,1.303-7.767,0.37-10.513-2.395L155.299,128.205z"/>
	</g>
	<g>
		<path style="fill:#FFFFFF;" d="M227.386,187.141c0,2.475-0.432,4.842-1.229,7.052c-0.374,1.063-0.839,2.085-1.371,3.057
			c-3.572,6.462-10.449,10.839-18.356,10.839c-7.916,0-14.793-4.377-18.365-10.839c-0.54-0.972-1.005-1.993-1.379-3.057
			c-0.797-2.209-1.221-4.577-1.221-7.052H227.386z"/>
		<path style="fill:#333333;" d="M226.164,194.193c-0.374,1.063-0.839,2.085-1.37,3.057c-3.572,6.462-10.449,10.839-18.356,10.839
			c-7.916,0-14.793-4.377-18.365-10.839c-0.54-0.972-1.005-1.993-1.379-3.057H226.164z"/>
	</g>
	<path style="fill:#935827;" d="M183.057,132.641c-0.322,0-0.65-0.052-0.972-0.163c-6.948-2.379-14.6-2.379-21.548,0
		c-1.565,0.535-3.273-0.299-3.81-1.867c-0.537-1.567,0.299-3.273,1.867-3.81c8.2-2.808,17.234-2.808,25.435,0
		c1.568,0.537,2.403,2.243,1.867,3.81C185.468,131.858,184.304,132.641,183.057,132.641z"/>
	<path style="fill:#935827;" d="M253.184,132.641c-0.322,0-0.65-0.052-0.972-0.163c-6.948-2.379-14.599-2.38-21.548,0
		c-1.567,0.535-3.273-0.299-3.81-1.867c-0.537-1.567,0.299-3.273,1.867-3.81c8.202-2.808,17.235-2.808,25.435,0
		c1.568,0.537,2.403,2.243,1.867,3.81C255.595,131.858,254.431,132.641,253.184,132.641z"/>
	<g>
		<circle style="fill:#FCC9A2;" cx="250.679" cy="177.141" r="16"/>
		<circle style="fill:#FCC9A2;" cx="162.179" cy="177.141" r="16"/>
	</g>
	<path style="fill:#333333;" d="M279.025,359.811v10.59c0,15.87-12.86,28.74-28.73,28.74h-87.71c-15.87,0-28.74-12.87-28.74-28.74
		v-10.59h0.4c2.25,13.62,14.09,24,28.34,24h87.71c14.25,0,26.08-10.38,28.33-24H279.025z"/>
	<path style="fill:#4D4D4D;" d="M206.371,7.136c-47.8,0-85.57,40.55-82.19,88.23l3.46,48.8h8.225v-16.674
		c0-16.104,13.055-29.159,29.159-29.159h83.479c16.104,0,29.159,13.055,29.159,29.159v16.674h7.438l3.46-48.8
		c0.14-1.99,0.21-3.97,0.21-5.93C288.771,44.377,252.181,7.136,206.371,7.136z"/>
	<path style="fill:#F2B53D;" d="M268.218,250.386c-14.004,0-25.397-11.393-25.397-25.397v-15.446h9v15.446
		c0,9.042,7.355,16.397,16.397,16.397s16.397-7.356,16.397-16.397V0h9v224.988C293.615,238.993,282.221,250.386,268.218,250.386z"/>
	<rect x="235.564" y="202.834" style="fill:#4D4D4D;" width="24.667" height="9"/>
	<g>
		<rect x="277.269" y="127.167" style="fill:#4D4D4D;" width="19.768" height="24.008"/>
		<rect x="115.704" y="127.167" style="fill:#4D4D4D;" width="19.768" height="24.008"/>
	</g>
	<g>
		<circle style="fill:#333333;" cx="171.307" cy="144.705" r="6"/>
		<circle style="fill:#333333;" cx="241.434" cy="144.705" r="6"/>
	</g>
	<g>
		<path style="fill:#4D4D4D;" d="M125.835,149c0,0-6.667,19.333-18.667,28c0,0,23.333-2.667,30-18.667s-8-17.333-8-17.333"/>
		<path style="fill:#4D4D4D;" d="M286.906,149c0,0,6.667,19.333,18.667,28c0,0-23.333-2.667-30-18.667s8-17.333,8-17.333"/>
	</g>
	<g>
		<path style="opacity:0.46;fill:#FFFFFF;enable-background:new    ;" d="M276.877,123.176v23.68c0,16.1-13.06,29.16-29.16,29.16
			h-83.48c-16.1,0-29.16-13.06-29.16-29.16v-23.68c0-16.11,13.06-29.16,29.16-29.16h83.48
			C263.817,94.016,276.877,107.066,276.877,123.176z"/>
		<path style="opacity:0.46;fill:#FFFFFF;enable-background:new    ;" d="M276.877,123.176v23.68c0,16.1-13.06,29.16-29.16,29.16
			h-34.02l-47.34-82h81.36C263.817,94.016,276.877,107.066,276.877,123.176z"/>
		<path style="fill:#F2B53D;" d="M248.11,181.512h-83.479c-19.111,0-34.659-15.548-34.659-34.659v-23.682
			c0-19.111,15.548-34.659,34.659-34.659h83.479c19.111,0,34.659,15.548,34.659,34.659v23.682
			C282.769,165.964,267.221,181.512,248.11,181.512z M164.631,99.512c-13.045,0-23.659,10.613-23.659,23.659v23.682
			c0,13.045,10.613,23.659,23.659,23.659h83.479c13.046,0,23.659-10.613,23.659-23.659v-23.682
			c0-13.046-10.613-23.659-23.659-23.659C248.11,99.512,164.631,99.512,164.631,99.512z"/>
	</g>
</g>
<g>
</g>
<g>
</g>
<g>
</g>
<g>
</g>
<g>
</g>
<g>
</g>
<g>
</g>
<g>
</g>
<g>
</g>
<g>
</g>
<g>
</g>
<g>
</g>
<g>
</g>
<g>
</g>
<g>
</g>
</svg>
